<svg class="svg-icon" style="width: 1em; height: 1em;vertical-align: middle;fill: currentColor;overflow: hidden;" viewBox="0 0 1024 1024" version="1.1" xmlns="http://www.w3.org/2000/svg"><path d="M510.739287 294.360168c-66.034972 0-123.827213 46.852074-137.375787 111.373577-2.542916 12.145621 5.217838 24.050766 17.34197 26.593681 12.124132 2.586918 24.050766-5.217838 26.593681-17.34197 9.230222-43.891649 48.518017-75.725682 93.440136-75.725682 52.639894 0 95.479585 42.839691 95.479585 95.479585s-42.839691 95.478562-95.479585 95.478562c-10.107195 0-20.082384-1.577938-29.619598-4.691859-0.025583-0.008186-0.051165-0.014326-0.076748-0.022513-2.166339-0.694825-4.474918-1.074472-6.873548-1.074472-6.383384 0-12.134365 2.661619-16.220427 6.930853-0.00921 0.00921-0.01842 0.019443-0.028653 0.029676-0.215918 0.226151-0.426719 0.457418-0.633427 0.691755-0.064468 0.072655-0.12689 0.146333-0.190335 0.220011-0.154519 0.180102-0.305969 0.36225-0.454348 0.547469-0.097214 0.121773-0.193405 0.243547-0.288572 0.367367-0.11461 0.149403-0.227174 0.298805-0.337691 0.451278-0.112564 0.153496-0.222057 0.309038-0.330528 0.465604-0.093121 0.135076-0.184195 0.271176-0.274246 0.407276-0.11154 0.169869-0.222057 0.341784-0.330528 0.515746-0.084934 0.138146-0.168846 0.277316-0.25071 0.416486-0.101307 0.170892-0.200568 0.342808-0.296759 0.51677-0.086981 0.156566-0.170892 0.316202-0.254803 0.474814-0.082888 0.158612-0.165776 0.317225-0.245593 0.478907-0.093121 0.188288-0.182149 0.379647-0.270153 0.571005-0.062422 0.1361-0.124843 0.271176-0.185218 0.409322-0.098237 0.225127-0.190335 0.453325-0.280386 0.681522-0.045025 0.113587-0.091074 0.225127-0.134053 0.339738-0.094144 0.249687-0.182149 0.50142-0.267083 0.7552-0.025583 0.076748-0.056282 0.151449-0.080841 0.229221-0.00921 0.029676-0.017396 0.059352-0.026606 0.088004-0.074701 0.234337-0.144286 0.471744-0.211824 0.710175-0.039909 0.13917-0.080841 0.277316-0.11768 0.416486-0.044002 0.165776-0.081864 0.333598-0.121773 0.50142-0.053212 0.221034-0.106424 0.442068-0.152473 0.664126-0.01228 0.060375-0.022513 0.121773-0.034792 0.182149-0.332575 1.658779-0.472767 3.319605-0.430812 4.958942l0 65.179488c0 12.408611 10.04068 22.450315 22.450315 22.450315s22.450315-10.041704 22.450315-22.450315l0-38.244023c4.678556 0.469698 9.386788 0.732687 14.119579 0.732687 77.414137 0 140.379191-62.966077 140.379191-140.379191S588.153424 294.360168 510.739287 294.360168z"  /><path d="M474.170416 659.920958c-12.408611 0-22.450315 10.04068-22.450315 22.450315l0 14.009062c0 12.408611 10.04068 22.450315 22.450315 22.450315s22.450315-10.04068 22.450315-22.450315l0-14.009062C496.619708 669.962661 486.579027 659.920958 474.170416 659.920958z"  /><path d="M512.011256 148.938124c-185.696306 0-336.752674 151.056368-336.752674 336.731184 0 76.953649 26.593681 151.735843 75.046207 211.610512L250.304789 852.611561c0 8.528234 4.822842 16.311501 12.475126 20.103874 3.1569 1.578961 6.576789 2.345418 9.975189 2.345418 4.801353 0 9.581216-1.534959 13.571087-4.559852l97.276511-73.774237c41.041742 17.056468 84.165912 25.695219 128.408555 25.695219 185.674816 0 336.731184-151.056368 336.731184-336.752674C848.741417 299.994492 697.68505 148.938124 512.011256 148.938124zM512.011256 777.521353c-42.467207 0-83.793428-9.207709-122.818233-27.382651-9.098215-4.252861-19.490913-1.709945-25.914206 5.634324l-68.074422 51.630914L295.204395 694.122921c1.315972-6.5553-0.328481-13.615089-4.954849-19.007913-45.207621-52.880371-70.091358-120.143311-70.091358-189.4457 0-160.922063 130.929981-291.830555 291.853068-291.830555S803.841811 324.747245 803.841811 485.669308 672.933319 777.521353 512.011256 777.521353z"  /></svg>